<svg xmlns="http://www.w3.org/2000/svg" xmlns:xlink="http://www.w3.org/1999/xlink" viewBox="0 0 116.36 23.09"><defs><style>.cls-1{font-size:21.26px;font-family:Broadway;}.cls-2{fill:url(#名称未設定グラデーション_22);}.cls-3{fill:url(#名称未設定グラデーション_22-2);}.cls-4{fill:url(#名称未設定グラデーション_22-3);}.cls-5{fill:url(#名称未設定グラデーション_22-4);}.cls-6{fill:url(#名称未設定グラデーション_22-5);}.cls-7{fill:url(#名称未設定グラデーション_22-6);}.cls-8{fill:url(#名称未設定グラデーション_22-7);}.cls-9{fill:url(#名称未設定グラデーション_22-8);}.cls-10{fill:url(#名称未設定グラデーション_22-9);}</style><linearGradient id="名称未設定グラデーション_22" x1="60.56" y1="63.35" x2="1.14" y2="3.93" gradientUnits="userSpaceOnUse"><stop offset="0" stop-color="#f0f"/><stop offset="1" stop-color="aqua"/></linearGradient><linearGradient id="名称未設定グラデーション_22-2" x1="69.38" y1="54.83" x2="10.32" y2="-4.23" xlink:href="#名称未設定グラデーション_22"/><linearGradient id="名称未設定グラデーション_22-3" x1="75.95" y1="46.62" x2="18.89" y2="-10.44" xlink:href="#名称未設定グラデーション_22"/><linearGradient id="名称未設定グラデーション_22-4" x1="84.31" y1="41.2" x2="25.87" y2="-17.24" xlink:href="#名称未設定グラデーション_22"/><linearGradient id="名称未設定グラデーション_22-5" x1="89.61" y1="35.86" x2="32.05" y2="-21.7" xlink:href="#名称未設定グラデーション_22"/><linearGradient id="名称未設定グラデーション_22-6" x1="95.57" y1="32.18" x2="36.52" y2="-26.88" xlink:href="#名称未設定グラデーション_22"/><linearGradient id="名称未設定グラデーション_22-7" x1="102.16" y1="25.34" x2="45.57" y2="-31.25" xlink:href="#名称未設定グラデーション_22"/><linearGradient id="名称未設定グラデーション_22-8" x1="107.19" y1="21.3" x2="50.72" y2="-35.16" xlink:href="#名称未設定グラデーション_22"/><linearGradient id="名称未設定グラデーション_22-9" x1="113.46" y1="16.71" x2="54.41" y2="-42.35" xlink:href="#名称未設定グラデーション_22"/></defs><g id="レイヤー_2" data-name="レイヤー 2"><g id="レイヤー_1-2" data-name="レイヤー 1"><text class="cls-1" transform="translate(0 17.82) scale(1.18 1)">Portfolio</text><path class="cls-2" d="M8.88,15.27v.29l0,2v.26H1.42v-.64l.07-7.3L1.45,6.42l0-2.36V3.65H7a39.52,39.52,0,0,1,5.2.25,8.87,8.87,0,0,1,3,.89,6.15,6.15,0,0,1,2.5,2.4,5,5,0,0,1,.67,2.46,5,5,0,0,1-.76,2.65A6,6,0,0,1,15,14.63a8.51,8.51,0,0,1-3.84.82A21.17,21.17,0,0,1,8.88,15.27Zm0-10.92v.7L8.85,12l0,2.59a12.31,12.31,0,0,0,2.51.21A7.43,7.43,0,0,0,14,14.32,5.83,5.83,0,0,0,16.1,13a4.52,4.52,0,0,0,0-6.64,6,6,0,0,0-2.65-1.53,15.25,15.25,0,0,0-4.2-.48Z"/><path class="cls-3" d="M26.67,6.2a8,8,0,0,1,3.73.92,6,6,0,0,1,2.49,2.33,5.31,5.31,0,0,1,.76,2.75,4.87,4.87,0,0,1-.45,2A5.75,5.75,0,0,1,32,16a6.89,6.89,0,0,1-2.63,1.61,7.94,7.94,0,0,1-2.66.44,7.66,7.66,0,0,1-4.17-1.16,6,6,0,0,1-2.19-2.29,5.26,5.26,0,0,1,1.58-6.78A7.81,7.81,0,0,1,26.67,6.2Zm-.36.66,0,10.48.53,0a7,7,0,0,0,3.26-.81,5.43,5.43,0,0,0,2.24-2.1,4.57,4.57,0,0,0,.59-2.29A4.79,4.79,0,0,0,30.71,8.1a6.49,6.49,0,0,0-3.84-1.26Z"/><path class="cls-4" d="M41.85,9.7l0,4,0,4.14h-6.3l0-.57V15.13l0-3.81-.06-4.24,0-.6h6.29V8.62a15.72,15.72,0,0,1,2-1.6,4.66,4.66,0,0,1,2.39-.76,2.4,2.4,0,0,1,1.14.25.74.74,0,0,1,.44.63.58.58,0,0,1-.27.5,1.11,1.11,0,0,1-.67.2,1.62,1.62,0,0,1-.57-.12,2.43,2.43,0,0,0-.9-.22,3.2,3.2,0,0,0-1.7.51A8.69,8.69,0,0,0,41.85,9.7Z"/><path class="cls-5" d="M55.63,2.83,55.5,6.18V6.5c.71,0,1.35,0,1.93-.07h.26q.54,0,.54.42c0,.26-.19.39-.56.39l-.43,0c-.65,0-1.11-.07-1.39-.07h-.35v2l0,4,0,2.16a2.61,2.61,0,0,0,.14,1,.46.46,0,0,0,.46.31,1.51,1.51,0,0,0,1-.44,3.12,3.12,0,0,0,.78-1.07c.17-.4.37-.6.61-.6s.42.13.42.39a1.8,1.8,0,0,1-.42,1,4.65,4.65,0,0,1-1,1,6.19,6.19,0,0,1-3.75,1.07A4.73,4.73,0,0,1,50.38,17a3.07,3.07,0,0,1-.85-1.25,6.42,6.42,0,0,1-.23-1.92V7.11h-.24l-.49,0a5.17,5.17,0,0,1-.52,0c-.4,0-.6-.13-.6-.38s.19-.38.58-.38h.38l.89.05V5.27A42.71,42.71,0,0,0,55.63,2.83Z"/><path class="cls-6" d="M66.21,7.09l0,3.12,0,3.86,0,3.33v.42H60v-.36l0-1.68,0-3.64,0-4.75v-.3h-.22l-.95,0c-.36,0-.55-.12-.55-.36s.17-.36.51-.36l.58,0H60a5.12,5.12,0,0,1,.44-1.37,3.48,3.48,0,0,1,.81-.95,6.69,6.69,0,0,1,4.38-1.28,7.69,7.69,0,0,1,2.46.35c.71.24,1.07.51,1.07.82a.38.38,0,0,1-.17.3.59.59,0,0,1-.38.14.68.68,0,0,1-.48-.23,2.71,2.71,0,0,0-.45-.41.79.79,0,0,0-.38-.09.91.91,0,0,0-.89.6,6.28,6.28,0,0,0-.27,2.12h1.14l.32,0H68c.34,0,.51.12.51.37s-.2.35-.6.35l-.9,0Z"/><path class="cls-7" d="M75.51,6.2a8,8,0,0,1,3.74.92,6,6,0,0,1,2.49,2.33,5.4,5.4,0,0,1,.76,2.75,4.87,4.87,0,0,1-.45,2A6.11,6.11,0,0,1,80.83,16,7,7,0,0,1,78.2,17.6a7.94,7.94,0,0,1-2.66.44,7.61,7.61,0,0,1-4.17-1.16,5.93,5.93,0,0,1-2.19-2.29,5.26,5.26,0,0,1,1.58-6.78A7.78,7.78,0,0,1,75.51,6.2Zm-.35.66,0,10.48.53,0a7,7,0,0,0,3.26-.81,5.49,5.49,0,0,0,2.24-2.1,4.57,4.57,0,0,0,.59-2.29A4.79,4.79,0,0,0,79.56,8.1a6.49,6.49,0,0,0-3.84-1.26Z"/><path class="cls-8" d="M90.68,3.65v.53l0,3.65V9.41l0,2.87.05,5.13v.41H84.42v-.49l0-1.65v-3l0-3.92V6.67l0-2.32v-.7Z"/><path class="cls-9" d="M99.84,6.48v.3l0,1.62,0,2.51,0,3.82,0,2.15,0,.94H93.53L93.59,14l0-3.38,0-1.77,0-2V6.48ZM96.66,2.85c2.16,0,3.24.47,3.24,1.43a1.21,1.21,0,0,1-.85,1.08,5.93,5.93,0,0,1-2.4.39c-2.05,0-3.08-.49-3.08-1.47S94.6,2.86,96.66,2.85Z"/><path class="cls-10" d="M108.87,6.2a8,8,0,0,1,3.74.92,6.08,6.08,0,0,1,2.48,2.33,5.31,5.31,0,0,1,.76,2.75,5,5,0,0,1-.44,2A6.11,6.11,0,0,1,114.19,16a6.93,6.93,0,0,1-2.64,1.61,7.9,7.9,0,0,1-2.66.44,7.6,7.6,0,0,1-4.16-1.16,6,6,0,0,1-2.2-2.29,5.35,5.35,0,0,1-.62-2.5,5.19,5.19,0,0,1,2.2-4.28A7.81,7.81,0,0,1,108.87,6.2Zm-.36.66,0,10.48.52,0a6.93,6.93,0,0,0,3.26-.81,5.46,5.46,0,0,0,2.25-2.1,4.56,4.56,0,0,0,.58-2.29,4.76,4.76,0,0,0-2.18-4.06,6.44,6.44,0,0,0-3.83-1.26Z"/></g></g></svg>