<?xml version="1.0" encoding="utf-8"?>
<!-- Generator: Adobe Illustrator 25.2.1, SVG Export Plug-In . SVG Version: 6.00 Build 0)  -->
<svg version="1.1" id="レイヤー_1" xmlns="http://www.w3.org/2000/svg" xmlns:xlink="http://www.w3.org/1999/xlink" x="0px"
	 y="0px" viewBox="0 0 841.89 595.28" style="enable-background:new 0 0 841.89 595.28;" xml:space="preserve">
<style type="text/css">
	.st0{fill:none;stroke:#231815;stroke-width:25.5118;stroke-miterlimit:10;}
</style>
<line class="st0" x1="1100.76" y1="553.39" x2="1166.86" y2="487.29"/>
<line class="st0" x1="1162.04" y1="603.97" x2="1095.94" y2="537.87"/>
<path class="st0" d="M122.33,113.44l-51.42,51.42l-51.42-51.42l51.42-51.42L122.33,113.44z M173.75,62.02l-51.42,51.42l51.42,51.42
	l51.42-51.42L173.75,62.02z M259.58,202.64L311,151.22L259.58,99.8 M311,48.38L259.58,99.8L311,151.22 M239.46,178.55V78.21
	 M241.65,53.97l-2.19,2.19l-2.19-2.19l2.19-2.19L241.65,53.97z M322.45,178.55V0 M322.45,89.27h63.14v89.27 M413.42,179.02V78.68
	 M415.61,54.44l-2.19,2.19l-2.19-2.19l2.19-2.19L415.61,54.44z"/>
</svg>
