<?xml version="1.0" encoding="utf-8"?>
<!-- Generator: Adobe Illustrator 25.2.1, SVG Export Plug-In . SVG Version: 6.00 Build 0)  -->
<svg version="1.1" id="レイヤー_1" xmlns="http://www.w3.org/2000/svg" xmlns:xlink="http://www.w3.org/1999/xlink" x="0px"
	 y="0px" viewBox="0 0 248.52 30.1" style="enable-background:new 0 0 248.52 30.1;" xml:space="preserve">
<style type="text/css">
	.st0{fill:none;stroke:#000000;stroke-width:5.6693;stroke-miterlimit:10;}
</style>
<circle cx="166.22" cy="-184.38" r="15.05"/>
<circle cx="228.71" cy="-184.38" r="15.05"/>
<polygon points="43.87,-199.43 26.49,-169.33 61.24,-169.33 "/>
<path d="M88.69-199.43h30.1l0,0v15c0,8.28-6.72,15-15,15l0,0c-8.28,0-15-6.72-15-15v-15H88.69z"/>
<polygon points="137.05,-199.43 134.98,-195.85 132.91,-199.43 119.93,-199.43 119.93,-169.33 126.81,-169.33 126.81,-172.92 
	128.88,-169.33 140.42,-169.33 142.49,-172.92 142.67,-169.33 150.03,-169.33 150.03,-199.43 "/>
<polygon points="12.36,-199.43 10.29,-195.85 8.22,-199.43 -4.76,-199.43 -4.76,-169.33 2.12,-169.33 2.12,-172.92 4.19,-169.33 
	15.72,-169.33 17.79,-172.92 17.98,-169.33 25.34,-169.33 25.34,-199.43 "/>
<polygon points="182.42,-199.43 182.42,-185.67 187.63,-185.67 187.63,-169.33 207.3,-169.33 207.3,-185.67 212.52,-185.67 
	212.52,-199.43 "/>
<polygon points="57.45,-199.43 57.45,-185.67 62.66,-185.67 62.66,-169.33 82.33,-169.33 82.33,-185.67 87.54,-185.67 
	87.54,-199.43 "/>
<rect x="66.19" y="6.18" transform="matrix(-0.7071 0.7071 -0.7071 -0.7071 138.7931 -27.3757)" class="st0" width="17.76" height="17.76"/>
<rect x="91.3" y="6.18" transform="matrix(-0.7071 0.7071 -0.7071 -0.7071 181.673 -45.1371)" class="st0" width="17.76" height="17.76"/>
<path class="st0" d="M117.72,10.01v20.01 M118.12,2.81h-0.8v0.8h0.8V2.81z"/>
<line class="st0" x1="112.22" y1="-178.21" x2="112.22" y2="-169.33"/>
<path class="st0" d="M143.01,2.49h-17.76v8.88l15.05,7.21v0.46v8.42h-17.76"/>
<line class="st0" x1="107.63" y1="-167.64" x2="107.63" y2="-176.52"/>
<path class="st0" d="M147.75,0.01v15.13v14.97 M159.91,30.11V15.14h-12.15"/>
<path class="st0" d="M168.45,10.01v20.01 M168.85,2.81h-0.8v0.8h0.8V2.81z"/>
</svg>
