<svg xmlns="http://www.w3.org/2000/svg" xmlns:xlink="http://www.w3.org/1999/xlink" viewBox="0 0 98.56 23.09"><defs><style>.cls-1{font-size:21.26px;font-family:Broadway;}.cls-2{fill:url(#名称未設定グラデーション_22);}.cls-3{fill:url(#名称未設定グラデーション_22-2);}.cls-4{fill:url(#名称未設定グラデーション_22-3);}.cls-5{fill:url(#名称未設定グラデーション_22-4);}.cls-6{fill:url(#名称未設定グラデーション_22-5);}.cls-7{fill:url(#名称未設定グラデーション_22-6);}.cls-8{fill:url(#名称未設定グラデーション_22-7);}.cls-9{fill:url(#名称未設定グラデーション_22-8);}.cls-10{fill:url(#名称未設定グラデーション_22-9);}</style><linearGradient id="名称未設定グラデーション_22" x1="54.29" y1="58.45" x2="0.34" y2="4.51" gradientUnits="userSpaceOnUse"><stop offset="0" stop-color="#f0f"/><stop offset="1" stop-color="aqua"/></linearGradient><linearGradient id="名称未設定グラデーション_22-2" x1="61.61" y1="51.13" x2="7.66" y2="-2.81" xlink:href="#名称未設定グラデーション_22"/><linearGradient id="名称未設定グラデーション_22-3" x1="67.86" y1="44.88" x2="13.91" y2="-9.06" xlink:href="#名称未設定グラデーション_22"/><linearGradient id="名称未設定グラデーション_22-4" x1="73.88" y1="38.87" x2="19.93" y2="-15.08" xlink:href="#名称未設定グラデーション_22"/><linearGradient id="名称未設定グラデーション_22-5" x1="78.32" y1="34.42" x2="24.38" y2="-19.52" xlink:href="#名称未設定グラデーション_22"/><linearGradient id="名称未設定グラデーション_22-6" x1="82.3" y1="30.45" x2="28.35" y2="-23.5" xlink:href="#名称未設定グラデーション_22"/><linearGradient id="名称未設定グラデーション_22-7" x1="88.09" y1="24.65" x2="34.14" y2="-29.29" xlink:href="#名称未設定グラデーション_22"/><linearGradient id="名称未設定グラデーション_22-8" x1="91.93" y1="20.81" x2="37.99" y2="-33.14" xlink:href="#名称未設定グラデーション_22"/><linearGradient id="名称未設定グラデーション_22-9" x1="96.42" y1="16.32" x2="42.48" y2="-37.63" xlink:href="#名称未設定グラデーション_22"/></defs><g id="レイヤー_2" data-name="レイヤー 2"><g id="レイヤー_1-2" data-name="レイヤー 1"><text class="cls-1" transform="translate(0 17.82)">Portfolio</text><path class="cls-2" d="M7.53,15.27v2.55H1.2v-.64l.06-7.3L1.22,6.42V3.65H6a28.34,28.34,0,0,1,4.4.25,6.64,6.64,0,0,1,2.52.89A5.63,5.63,0,0,1,15,7.19a5.55,5.55,0,0,1,.57,2.46,5.75,5.75,0,0,1-.64,2.65,5.52,5.52,0,0,1-2.18,2.33,6.3,6.3,0,0,1-3.25.82A15.06,15.06,0,0,1,7.53,15.27Zm0-10.92v.7l0,6.93,0,2.59a8.73,8.73,0,0,0,2.12.21,5.43,5.43,0,0,0,2.23-.46A4.93,4.93,0,0,0,13.64,13a5.08,5.08,0,0,0,0-6.64A5,5,0,0,0,11.4,4.83a11,11,0,0,0-3.55-.48Z"/><path class="cls-3" d="M22.59,6.2a6,6,0,0,1,3.16.92,5.59,5.59,0,0,1,2.11,2.33,6.08,6.08,0,0,1,.65,2.75,5.71,5.71,0,0,1-.38,2,6.23,6.23,0,0,1-1,1.79,5.88,5.88,0,0,1-4.48,2,5.73,5.73,0,0,1-3.53-1.16,5.63,5.63,0,0,1-1.86-2.29,6.13,6.13,0,0,1-.53-2.5,5.52,5.52,0,0,1,1.87-4.28A6,6,0,0,1,22.59,6.2Zm-.3.66,0,10.48.44,0a5.2,5.2,0,0,0,2.76-.81,5,5,0,0,0,1.9-2.1,5.12,5.12,0,0,0,.5-2.29A5,5,0,0,0,26,8.1a4.93,4.93,0,0,0-3.25-1.26Z"/><path class="cls-4" d="M35.45,9.7l0,4,0,4.14H30.14V15.13l0-3.81-.05-4.24v-.6h5.32V8.62A13.78,13.78,0,0,1,37.12,7a3.54,3.54,0,0,1,2-.76,1.78,1.78,0,0,1,1,.25.74.74,0,0,1,.37.63.62.62,0,0,1-.22.5.88.88,0,0,1-.57.2,1.21,1.21,0,0,1-.49-.12,1.79,1.79,0,0,0-.76-.22A2.43,2.43,0,0,0,37,8,7.76,7.76,0,0,0,35.45,9.7Z"/><path class="cls-5" d="M47.13,2.83,47,6.18V6.5a16.27,16.27,0,0,0,1.64-.07h.22c.31,0,.46.14.46.42s-.16.39-.48.39l-.36,0c-.55,0-.94-.07-1.17-.07H47v2l0,4,0,2.16a3.23,3.23,0,0,0,.11,1,.41.41,0,0,0,.4.3,1.17,1.17,0,0,0,.8-.43A3.12,3.12,0,0,0,49,15.2c.14-.4.32-.6.52-.6s.35.13.35.39a2,2,0,0,1-.35,1,4.28,4.28,0,0,1-4,2.09A3.59,3.59,0,0,1,42.68,17,3,3,0,0,1,42,15.71a7.35,7.35,0,0,1-.2-1.92V7.11h-.21l-.41,0a3.63,3.63,0,0,1-.44,0q-.51,0-.51-.39c0-.25.17-.37.49-.37H41l.76.05V5.27A34.18,34.18,0,0,0,47.13,2.83Z"/><path class="cls-6" d="M56.09,7.09l0,3.12,0,3.86,0,3.33v.42H50.78v-.36l0-1.68,0-3.64,0-4.75v-.3H50.6l-.8,0c-.32,0-.47-.12-.47-.36s.14-.36.42-.36l.5,0h.6a5.85,5.85,0,0,1,.37-1.37,3.27,3.27,0,0,1,.69-.95,5.08,5.08,0,0,1,3.71-1.28,5.65,5.65,0,0,1,2.09.35c.6.24.9.51.9.82a.41.41,0,0,1-.14.3.44.44,0,0,1-.33.13.53.53,0,0,1-.4-.22,2.25,2.25,0,0,0-.39-.41A.55.55,0,0,0,57,3.71a.78.78,0,0,0-.75.6,7.25,7.25,0,0,0-.22,2.12h1l.27,0h.33c.29,0,.43.12.43.37s-.17.35-.51.35l-.76,0Z"/><path class="cls-7" d="M64,6.2a6,6,0,0,1,3.16.92,5.66,5.66,0,0,1,2.11,2.33,6.07,6.07,0,0,1,.64,2.75,5.49,5.49,0,0,1-.38,2,6,6,0,0,1-1,1.79A5.88,5.88,0,0,1,64,18a5.73,5.73,0,0,1-3.53-1.16,5.63,5.63,0,0,1-1.86-2.29,6.13,6.13,0,0,1-.53-2.5,5.52,5.52,0,0,1,1.87-4.28A6,6,0,0,1,64,6.2Zm-.31.66,0,10.48.45,0a5.2,5.2,0,0,0,2.76-.81,5,5,0,0,0,1.9-2.1,5.26,5.26,0,0,0,.5-2.29A5.06,5.06,0,0,0,67.39,8.1a5,5,0,0,0-3.25-1.26Z"/><path class="cls-8" d="M76.82,3.65v.53l0,3.65V9.41l0,2.87,0,5.13v.41H71.51v-.49l0-1.65v-3l0-3.92,0-2.1,0-2.32v-.7Z"/><path class="cls-9" d="M84.57,6.48v.3l0,1.62,0,2.51,0,3.82,0,2.15,0,.94H79.23l0-3.82,0-3.38,0-1.77,0-2V6.48ZM81.88,2.85c1.83,0,2.74.47,2.74,1.43a1.19,1.19,0,0,1-.72,1.08,4.33,4.33,0,0,1-2,.39c-1.73,0-2.6-.49-2.6-1.47S80.14,2.86,81.88,2.85Z"/><path class="cls-10" d="M92.22,6.2a6,6,0,0,1,3.17.92A5.66,5.66,0,0,1,97.5,9.45a6.2,6.2,0,0,1,.64,2.75,5.71,5.71,0,0,1-.38,2,6.2,6.2,0,0,1-1,1.79,5.88,5.88,0,0,1-4.49,2,5.75,5.75,0,0,1-3.53-1.16,5.68,5.68,0,0,1-1.85-2.29,6,6,0,0,1-.53-2.5,5.55,5.55,0,0,1,1.86-4.28A6,6,0,0,1,92.22,6.2Zm-.3.66,0,10.48.45,0a5.2,5.2,0,0,0,2.76-.81,5.06,5.06,0,0,0,1.9-2.1,5.26,5.26,0,0,0,.5-2.29A5.06,5.06,0,0,0,95.65,8.1,5,5,0,0,0,92.4,6.84Z"/></g></g></svg>